<?xml version="1.0" encoding="utf-8"?>
<!-- Generator: Adobe Illustrator 26.5.0, SVG Export Plug-In . SVG Version: 6.00 Build 0)  -->
<svg version="1.1" id="Layer_1" xmlns="http://www.w3.org/2000/svg" xmlns:xlink="http://www.w3.org/1999/xlink" x="0px" y="0px"
	 viewBox="0 0 35 35" style="enable-background:new 0 0 35 35;" xml:space="preserve">
<style type="text/css">
	.st0{opacity:0.1;enable-background:new    ;}
	.st1{fill:#1D1D1D;}
</style>
<g>
	<path class="st0" d="M11.5,15.7c2-5.3,6.3-5.4,9.7-3.7c3.4,1.6,5.8,5.9,3.9,9.5c-1.9,3.6-4.4,5.3-8.7,4
		C12.1,24.2,9.1,22.2,11.5,15.7L11.5,15.7z"/>
	<path class="st1" d="M6.7,2.1C5.3,2.4,4,3.3,3.1,4.4C2.2,5.5,1.6,6.8,1.5,8.2c0,0.1,0,0.3,0,0.4c0,0.1,0,0.3,0,0.4
		c0,0.3,0,0.6,0,0.9c0,0.6,0,1.2,0,1.8c0,1.2,0,2.4-0.1,3.6c0,2.4-0.1,4.9-0.1,7.6c0,0.7,0,1.3,0,1.9c0,0.3,0,0.6,0,1l0,0.2v0.1v0.1
		c0,0.1,0,0.3,0,0.4c0,0.6,0.1,1.1,0.3,1.7C1.7,29,2,29.6,2.2,30.1c0.6,1,1.4,1.9,2.4,2.6c0.5,0.3,1.1,0.6,1.7,0.8
		c0.6,0.2,1.2,0.3,1.9,0.4l0.2,0l0.1,0h0.1c0.2,0,0.3,0,0.5,0c0.3,0,0.7,0,1.1,0c0.7,0,1.4,0,2.1,0c1.4,0,2.9,0,4.3,0
		c0.6,0,2.5,0.1,2.3-0.1c1.4,0,2.8,0.1,4.2,0.1c0.7,0,1.4,0,2.1,0l0.5,0c0.2,0,0.3,0,0.5,0c0.2,0,0.3,0,0.5,0c0.2,0,0.3,0,0.5-0.1
		c0.6-0.1,1.2-0.3,1.8-0.6c0.6-0.3,1.1-0.6,1.6-1c0.5-0.4,0.9-0.9,1.3-1.4c0.4-0.5,0.7-1.1,0.9-1.7c0.2-0.5,0.3-1,0.4-1.6
		c0-0.1,0-0.3,0.1-0.4c0-0.1,0-0.3,0-0.4c0-0.1,0-0.3,0-0.4l0-0.4c0-1.2,0.1-2.4,0-3.5c-0.1-3.8,0.1-7.5,0.1-11.1
		c0-0.5-0.1-1.6-0.1-2c0-0.2,0-0.3,0-0.5c0-0.1,0-0.3,0-0.4c0-0.1,0-0.3,0-0.4c0-0.1,0-0.3-0.1-0.4c-0.1-0.6-0.3-1.1-0.5-1.7
		c-0.5-1.1-1.2-2-2.1-2.7c-0.9-0.7-1.9-1.2-3-1.4c-0.5-0.1-1.1-0.2-1.6-0.2c-0.3,0-0.6,0-0.9,0c-0.3,0-0.6,0-0.9,0
		c-1.9,0-3.3,0.1-5.1,0.1c-0.2,0.1-0.6,0.1-1.1,0.1c-1.4,0-8.9-0.2-9.6-0.3c-0.2,0,3.5,0,7.3-0.1c1.9,0,3.7,0,5.1,0
		c1.4,0,2.3,0,2.2-0.1c-0.3,0-9.9,0-10.7,0c4.5-0.1,8.1-0.2,11-0.3c0.7,0,1.4,0,2.1,0c0.3,0,0.6,0,0.9,0c0.1,0,0.3,0,0.4,0
		c0.1,0,0.1,0,0.2,0c0.1,0,0.1,0,0.2,0c1.1,0.2,2,0.5,2.7,0.9c0.7,0.4,1.2,0.8,1.6,1.2c0.4,0.4,0.6,0.7,0.8,0.9
		c0.2,0.2,0.3,0.3,0.3,0.4c0,0,0,0-0.1-0.1c-0.2-0.2-0.6-0.8-1.2-1.4c-0.7-0.6-1.7-1.3-2.9-1.7c-0.6-0.2-1.3-0.3-2-0.4
		c-0.1,0-0.2,0-0.3,0c-0.1,0-0.2,0-0.3,0c-0.2,0-0.4,0-0.5,0c-0.4,0-0.7,0-1.1,0c-1.4,0-2.9,0.1-4.2,0.1c-1.7,0-4.1,0.1-7.4,0.1
		c1.9-0.1,5.9-0.3,6.8-0.3c2.2-0.1,3.1-0.1,4.1-0.1c0.5,0,1,0,1.7,0c0.2,0,0.4,0,0.6,0c0.1,0,0.2,0,0.3,0c0.1,0,0.2,0,0.3,0
		c0.5,0,1,0.1,1.6,0.3c0.5,0.2,1,0.4,1.6,0.6c0.5,0.3,1.1,0.6,1.6,1.1c1,0.9,1.9,2,2.4,3.3c0.3,0.7,0.4,1.3,0.5,2
		c0.1,0.3,0.1,0.7,0.1,1c0,0.3,0,0.6,0,0.9c0,1.2,0,2.3,0.1,3.2c-0.1-0.9-0.2-2.4-0.2-4c0-0.4-0.1-0.8-0.1-1.3
		c-0.1-0.4-0.2-0.8-0.3-1.2c-0.3-0.8-0.6-1.5-1-2.1c0.4,0.6,0.6,1.2,0.8,1.8c0.2,0.6,0.3,1.1,0.4,1.6C34,8,34,8.3,34.1,8.5
		c0,0.1,0,0.2,0,0.3c0,0.1,0,0.2,0,0.3c0,0.4,0,0.9,0.1,1.3c0.1,1.7,0.2,3.4,0.2,6.4c0,0.6,0,1.2,0,1.9c0,0.7,0,1.3-0.1,2.1
		c0,1.2,0,2.4,0,3.6c0,0.6,0,1.2,0,1.8c0,0.6-0.1,1.2-0.2,1.8c-0.2,1.2-0.7,2.4-1.5,3.4c-0.7,1-1.7,1.9-2.8,2.5
		c0.2-0.1,0.4-0.2,0.5-0.3c0.1,0,0.2-0.1,0.3-0.1c0.1,0,0.2-0.1,0.3-0.2c0.9-0.6,1.7-1.5,2.3-2.4c0.6-0.9,1-1.9,1.2-3
		c0.1-0.5,0.2-1.1,0.2-1.6c0-0.1,0-0.3,0-0.4c0-0.1,0-0.3,0-0.4c0-0.3,0-0.5,0-0.8c0-1,0-2.1,0-3.2c0-0.9-0.1-2-0.1-3
		c0-1.8,0.1-3.5,0.1-5.2c0.1,3.4,0.1,7.4,0.1,11.1c0,0.4,0,0.8,0.1,1.2c0,0.2,0,0.4,0,0.6c0,0.2,0,0.4,0,0.6c0-0.1,0-0.2,0-0.4
		l0-0.4c0-0.2,0-0.4,0-0.6c0-0.4,0-0.9,0-1.3c0-0.9,0-1.7,0-2.6c0-3-0.1-6.5-0.2-9.7c0-0.8,0-1.6,0-2.4c0-0.2,0-0.4,0-0.6
		c0-0.1,0-0.2,0-0.3c0-0.1,0-0.2,0-0.3c0-0.4-0.1-0.8-0.1-1.2C34.2,6.7,34,6,33.8,5.4c-0.3-0.6-0.6-1.2-0.9-1.7
		c-0.1-0.1-0.2-0.2-0.4-0.4c0-0.1-0.1-0.1-0.2-0.2c-0.3-0.3-0.7-0.7-1-1c-0.4-0.3-0.8-0.6-1.2-0.9c0.7,0.4,1.4,0.9,2,1.5
		c1.2,1.1,2.1,2.7,2.5,4.4c0.1,0.4,0.2,0.9,0.2,1.3c0,0.1,0,0.2,0,0.3l0,0.2V9c0,0.2,0,0.4,0,0.6c0,0.8,0,1.6,0,2.5
		c0,3.3,0,6.7,0,10c0,0.7,0,1.7,0,2.7c0,0.5,0,1,0,1.4c0,0.1,0,0.1,0,0.2c0,0.1,0,0.1,0,0.2c0,0.1,0,0.2,0,0.4c0,0.2,0,0.4-0.1,0.6
		c-0.1,1.2-0.5,2.3-1.1,3.4c-0.6,1-1.4,2-2.4,2.7c-1,0.7-2.1,1.2-3.2,1.5c-0.6,0.1-1.2,0.2-1.8,0.2l-0.4,0l-0.4,0
		c-0.3,0-0.5,0-0.8,0c-3.8-0.1-7.7-0.2-11.5-0.2c-1,0-1.9,0-2.9-0.1l-1.4,0c-0.2,0-0.5,0-0.7,0c-0.1,0-0.3,0-0.4,0l-0.4-0.1
		c-1-0.2-1.9-0.5-2.8-1c-0.9-0.5-1.6-1.2-2.3-1.9c-0.6-0.8-1.1-1.6-1.5-2.6c-0.3-0.9-0.5-1.9-0.5-2.9c0-1.9,0.1-3.8,0.1-5.7
		C0.5,16.8,0.6,13,0.7,9.3c0-0.2,0-0.4,0-0.5l0-0.3c0-0.1,0-0.2,0-0.3c0,0.1,0,0.1,0,0.2c0,0.1,0,0.1,0,0.2c0-0.3,0.1-0.6,0.1-0.9
		c0.1-0.9,0.4-1.8,0.9-2.6S2.7,3.6,3.4,3c0.1-0.1,0.2-0.1,0.1,0c0,0-0.1,0.1-0.2,0.1C3.3,3.2,3.2,3.3,3.1,3.4C3.1,3.4,3,3.5,2.9,3.6
		C2.8,3.7,2.7,3.8,2.6,3.9C2.5,4,2.5,4.1,2.4,4.2C2.3,4.3,2.3,4.4,2.3,4.5c0.2-0.3,0.5-0.6,0.5-0.6s0,0.1,0,0.2
		c0.2-0.2,0.3-0.3,0.5-0.5C2.5,4.2,2,5,1.6,5.9C1.2,6.8,1,7.8,1,8.8c0,2.1,0,4.2,0,6.4c0.1-0.5,0.1-1.8,0.1-2.4c0-0.7,0-1.4,0-2.1
		c0-0.3,0-0.7,0-1c0-0.2,0-0.3,0-0.5c0-0.2,0-0.3,0-0.5c0-0.8,0.2-1.6,0.5-2.4c0.3-0.8,0.7-1.5,1.3-2.1C3.4,3.6,4,3,4.7,2.6
		c0.7-0.4,1.4-0.7,2.2-0.8C7.4,1.7,8,1.6,8.5,1.7c0.2,0,0.2,0,0.2,0c0,0-0.1,0-0.2,0c-0.1,0-0.2,0-0.3,0C7.9,1.8,7.2,1.9,6.7,2.1
		L6.7,2.1z M20.4,34.8c-1.2,0-2.3-0.1-3.5-0.2c-0.4,0-0.8,0-1.2,0c-0.5,0-1.1,0-1.6,0c-1.1,0-2.2-0.1-3.3-0.1l-1.7,0
		c-0.3,0-0.6,0-0.8,0c-0.3,0-0.6-0.1-0.8-0.1c0.3,0.1,0.5,0.1,0.8,0.1c0.3,0,0.6,0,0.9,0.1c0.6,0,1.2,0.1,1.8,0.1
		c1.2,0.1,2.5,0.1,3.9,0.1c-1.8,0-3.6,0-5.3-0.1c-0.2,0-0.4,0-0.6,0l-0.3,0l-0.3,0c-0.4,0-0.9-0.1-1.3-0.2c-0.4-0.1-0.8-0.2-1.2-0.4
		c-0.4-0.2-0.8-0.3-1.1-0.6c-1.4-0.9-2.5-2.1-3.2-3.6c-0.3-0.7-0.5-1.5-0.6-2.3c0-0.4-0.1-0.8-0.1-1.2c0-0.4,0-0.8,0-1.3
		c0-2,0.1-4.1,0.1-6.2c0-1.5,0-2.9,0-4.4c-0.1,2.3-0.1,4.5-0.2,6.8c0,1.1-0.1,2.3-0.1,3.4l0,1.7c0,0.6,0,1.1,0.1,1.7
		c0.2,1.1,0.6,2.2,1.3,3.1c0.6,0.9,1.5,1.7,2.4,2.4c1,0.6,2.1,1,3.2,1.2c0.3,0,0.6,0.1,0.9,0.1c0.3,0,0.6,0,0.8,0l1.7,0
		c4.5,0.1,9,0.2,13.5,0.3l0.8,0c0.3,0,0.6,0,0.9,0c0.6,0,1.2-0.1,1.8-0.2c1.2-0.3,2.3-0.8,3.3-1.6c1-0.8,1.8-1.7,2.4-2.8
		c0.6-1.1,1-2.4,1-3.6c-0.1,1.6-0.7,3.2-1.7,4.5c-0.9,1.3-2.2,2.3-3.6,2.9c-0.7,0.3-1.5,0.5-2.2,0.6c-0.4,0-0.8,0.1-1.2,0.1
		c-0.2,0-0.4,0-0.6,0l-0.5,0C23.4,34.9,21.9,34.9,20.4,34.8L20.4,34.8z M22.6,34.7c0.6,0,1.2,0,1.8,0c0.3,0,0.6,0,0.9,0
		c0.3,0,0.6,0,0.9,0c1.2,0,2.4-0.4,3.5-0.9c1.5-0.7,2.7-1.9,3.5-3.4c0.4-0.7,0.7-1.5,0.9-2.3c0.1-0.4,0.1-0.8,0.2-1.2
		c0-0.2,0-0.4,0-0.6c0-0.2,0-0.4,0-0.6c0-3-0.1-5.8-0.2-7.9c0,2.8,0.1,5.7,0.1,8.6c0,1.5-0.4,3-1.2,4.3c-0.8,1.3-1.9,2.4-3.3,3.1
		c0.7-0.3,1.1-0.7,1.5-0.9c0.2-0.1,0.3-0.3,0.4-0.4c0.1-0.1,0.2-0.2,0.2-0.2c0.2-0.2,0.1,0-0.4,0.4c-0.2,0.2-0.6,0.5-1,0.8
		c-0.4,0.3-1,0.6-1.7,0.8c-0.3,0.1-0.7,0.2-1.1,0.3c-0.4,0.1-0.8,0.1-1.2,0.2c-0.4,0-0.9,0-1.3,0c-0.4,0-0.9,0-1.4,0
		C23.4,34.7,23,34.7,22.6,34.7L22.6,34.7z"/>
	<path class="st1" d="M0.4,18.2c0.1-2.6,0.2-5.3,0.3-8c-0.1,1-0.2,1.9-0.3,3.1c-0.2,3.2-0.2,6.8-0.3,10.1c0,0.6,0,1.2-0.1,1.8
		c0,0.3,0,0.6,0,0.9c0,0.1,0,0.3,0,0.5c0,0.2,0,0.3,0,0.5c0.1,1.3,0.5,2.6,1.1,3.7C1.8,32,2.7,33,3.8,33.7c0.5,0.4,1.1,0.7,1.8,0.9
		c0.6,0.2,1.3,0.4,1.9,0.5c0.2,0,0.3,0,0.5,0.1c0.2,0,0.3,0,0.5,0c0.3,0,0.6,0,0.9,0c0.6,0,1.2,0,1.9,0c1.2,0,2.5,0,3.8,0.1
		c2.5,0,5,0.1,7.6,0.1c0.5,0,1.6,0,2.4,0c-3.2-0.1-6.4-0.1-9.5-0.2c-1.6,0-3.1-0.1-4.7-0.1c-0.8,0-1.6,0-2.3,0
		c-0.8,0-1.7-0.1-2.4-0.4c-1.6-0.5-3-1.4-4-2.7c-1-1.3-1.7-2.8-1.9-4.4c0-0.4-0.1-0.8-0.1-1.2c0-0.4,0-0.8,0-1.2
		c0-0.8,0-1.6,0.1-2.3C0.3,21.3,0.3,19.8,0.4,18.2L0.4,18.2z"/>
	<path class="st1" d="M35,23.2c0-1.9-0.1-3.8,0-5.6c-0.1,1.6-0.1,3.9-0.1,5.7c0,0.6,0,1.3,0,1.9l0,0.9v0.1l0,0.1l0,0.3
		c0,0.2,0,0.4,0,0.5c-0.1,1.4-0.6,2.8-1.3,4c0.8-1.2,1.3-2.5,1.4-4c0-0.2,0-0.4,0-0.5l0-0.3l0-0.1l0-0.1c0-0.3,0-0.6,0-1
		C35,24.6,35,23.9,35,23.2L35,23.2z"/>
	<path class="st1" d="M25.1,35.4l0.4,0l0.2,0h0.1h0.1c0.3,0,0.6,0,0.9,0c1.3-0.1,2.6-0.6,3.8-1.3c0.6-0.4,1.1-0.8,1.6-1.3
		c0.5-0.5,0.9-1,1.3-1.6c-0.4,0.6-0.9,1.2-1.4,1.7c-0.5,0.5-1.1,0.9-1.8,1.3c-1.3,0.7-2.7,1.1-4.1,1.1c0,0-0.1,0.1-0.3,0.1
		c-0.1,0-0.1,0-0.2,0c-0.1,0-0.1,0-0.2,0C25.4,35.4,25.3,35.4,25.1,35.4L25.1,35.4z"/>
	<path class="st1" d="M11.4,15.7c0,0,0.1-0.1,0.2-0.4c0.1-0.1,0.2-0.3,0.3-0.5c0.1-0.2,0.2-0.4,0.4-0.6c0,0,0,0,0.1-0.1
		c0,0,0.1-0.1,0.2-0.2c0.1-0.1,0.2-0.2,0.3-0.3c0.1-0.1,0.3-0.3,0.4-0.4c0.3-0.3,0.8-0.7,1.4-0.9c0.6-0.3,1.3-0.5,2.1-0.6
		c0.8,0,1.7,0.1,2.7,0.4c0.5,0.2,1,0.4,1.5,0.6c0.5,0.3,0.9,0.6,1.4,0.9c0.9,0.7,1.7,1.7,2.2,2.9c0.3,0.6,0.4,1.2,0.5,1.9
		c0.1,0.7,0,1.4-0.2,2c0,0.1,0,0.1-0.1,0.2c0,0,0,0,0,0.1c0,0,0,0.1-0.1,0.2c0,0.1-0.1,0.2-0.1,0.3c-0.1,0.1-0.1,0.2-0.2,0.4
		c-0.2,0.3-0.4,0.7-0.6,1.1c-0.1,0.2-0.3,0.4-0.5,0.6c-0.2,0.2-0.4,0.4-0.6,0.7c0,0,0,0,0,0c0,0-0.1,0.1-0.1,0.1
		c0,0-0.1,0.1-0.2,0.1c-0.1,0.1-0.1,0.1-0.2,0.2c-0.3,0.2-0.8,0.5-1.3,0.8c-0.5,0.2-1.1,0.3-1.6,0.4c-0.5,0-0.9,0-1.1,0
		c0,0-0.1,0-0.2,0c-0.1,0-0.2,0-0.3,0c-0.1,0-0.3,0-0.4,0c-0.3,0-0.7-0.1-1.2-0.2c-0.5-0.1-1-0.2-1.6-0.4c-0.6-0.2-1.2-0.5-1.9-0.9
		c-0.3-0.2-0.6-0.5-0.9-0.8c-0.3-0.3-0.5-0.7-0.7-1.1C10.5,21,10.4,20,10.5,19c0.1-0.5,0.2-1,0.3-1.5c0.2-0.5,0.4-1,0.6-1.5
		c0,0,0,0.1-0.1,0.2c-0.1,0.1-0.2,0.3-0.3,0.6C11,16.9,11,17,10.9,17.2c-0.1,0.2-0.1,0.4-0.2,0.6c-0.1,0.2-0.1,0.4-0.2,0.7
		c0,0.2-0.1,0.5-0.1,0.8c-0.1,0.5-0.1,1.1,0.1,1.8c0.1,0.6,0.4,1.3,0.9,1.9c0.2,0.3,0.5,0.6,0.8,0.8c0.3,0.2,0.6,0.4,1,0.6
		c0.7,0.4,1.5,0.6,2.3,0.8c0,0,0.1,0.1,0.3,0.2c0.2,0.1,0.6,0.3,1.1,0.4c0.5,0.1,1.1,0.3,1.9,0.3c0.4,0,0.8-0.1,1.3-0.2
		c0.5-0.1,0.9-0.3,1.4-0.6c0,0,0,0-0.1,0.1c0,0-0.1,0.1-0.2,0.2c-0.1,0-0.1,0.1-0.2,0.1c-0.1,0.1-0.2,0.1-0.3,0.2
		c-0.2,0.1-0.6,0.2-1,0.3c-0.4,0.1-0.9,0.1-1.5,0.1c-0.6,0-1.2-0.1-2-0.3c-0.4-0.1-0.7-0.2-1.1-0.3c-0.4-0.1-0.8-0.3-1.3-0.5
		c-0.4-0.2-0.9-0.4-1.4-0.7c-0.5-0.3-0.9-0.7-1.3-1.2c0,0,0,0,0.1,0.1c0,0,0.1,0.1,0.2,0.2c0.1,0.1,0.1,0.1,0.2,0.2
		c0.1,0.1,0.2,0.1,0.2,0.2c0.1,0.1,0.2,0.2,0.3,0.3c0.1,0.1,0.3,0.2,0.4,0.3c0.6,0.4,1.4,0.8,2.6,1.1c0.3,0.1,0.6,0.2,0.9,0.3
		c0.2,0,0.3,0.1,0.5,0.1c0.2,0,0.4,0.1,0.5,0.1c0.4,0.1,0.8,0.1,1.2,0.1c0.4,0,0.9,0,1.3-0.1c0,0,0,0-0.1,0c0,0-0.1,0-0.2,0.1
		c-0.2,0-0.4,0.1-0.7,0.1c-0.6,0.1-1.5,0-2.5-0.2c0,0,0.1,0,0.2,0c0.1,0,0.3,0.1,0.6,0.1c0.5,0.1,1.3,0.2,2.4,0
		c0.5-0.1,1.1-0.2,1.7-0.4c0.6-0.3,1.2-0.6,1.7-1.1c0.5-0.5,1.1-1.1,1.5-1.8c0.2-0.4,0.4-0.7,0.6-1.1c0.2-0.4,0.4-0.8,0.5-1.3
		c-0.1,0.2-0.1,0.3-0.2,0.5c-0.1,0.1-0.1,0.3-0.1,0.3c0,0.1-0.1,0.2-0.1,0.2c0,0.1,0,0.1-0.1,0.1c0,0.1,0.1-0.1,0.3-0.5
		c0.1-0.2,0.2-0.5,0.3-0.8c0.1-0.3,0.2-0.7,0.2-1.1c0.1-0.8-0.1-1.8-0.4-2.7c-0.4-1-0.9-1.9-1.7-2.7c-0.7-0.8-1.6-1.5-2.5-1.9
		c-0.9-0.5-1.8-0.8-2.5-0.9c-0.8-0.2-1.4-0.2-1.8-0.3c0,0,0,0-0.1,0c-0.1,0-0.1,0-0.3,0c-0.1,0-0.1,0-0.2,0c-0.1,0-0.1,0-0.2,0
		c-0.2,0-0.3,0.1-0.5,0.1c-0.4,0.1-0.8,0.3-1.2,0.5c-0.4,0.2-0.8,0.5-1.2,0.9c-0.8,0.7-1.3,1.6-1.6,2.2
		C11.4,15.1,11.3,15.6,11.4,15.7"/>
</g>
</svg>
