<?xml version="1.0" encoding="utf-8"?>
<!-- Generator: Adobe Illustrator 26.5.0, SVG Export Plug-In . SVG Version: 6.00 Build 0)  -->
<svg version="1.1" id="Layer_1" xmlns="http://www.w3.org/2000/svg" xmlns:xlink="http://www.w3.org/1999/xlink" x="0px" y="0px"
	 viewBox="0 0 35 35" style="enable-background:new 0 0 35 35;" xml:space="preserve">
<style type="text/css">
	.st0{fill:#1D1D1D;}
	.st1{fill-opacity:0.1;}
</style>
<g>
	<path class="st0" d="M6.7,1.6C5.3,2,4,2.8,3.1,3.9C2.2,5,1.6,6.4,1.5,7.8c0,0.1,0,0.3,0,0.4c0,0.1,0,0.3,0,0.4c0,0.3,0,0.6,0,0.9
		c0,0.6,0,1.2,0,1.8c0,1.2,0,2.4-0.1,3.6c0,2.4-0.1,4.9-0.1,7.6c0,0.7,0,1.3,0,1.9c0,0.3,0,0.6,0,1l0,0.2v0.1V26c0,0.1,0,0.3,0,0.4
		c0,0.6,0.1,1.1,0.3,1.7c0.2,0.5,0.4,1.1,0.7,1.6c0.6,1,1.4,1.9,2.4,2.6c0.5,0.3,1.1,0.6,1.7,0.8c0.6,0.2,1.2,0.3,1.9,0.4l0.2,0
		l0.1,0h0.1c0.2,0,0.3,0,0.5,0c0.3,0,0.7,0,1.1,0c0.7,0,1.4,0,2.1,0c1.4,0,2.9,0,4.3,0c0.6,0,2.5,0.1,2.3-0.1c1.4,0,2.8,0.1,4.2,0.1
		c0.7,0,1.4,0,2.1,0l0.5,0c0.2,0,0.3,0,0.5,0c0.2,0,0.3,0,0.5,0c0.2,0,0.3,0,0.5-0.1c0.6-0.1,1.2-0.3,1.8-0.6c0.6-0.3,1.1-0.6,1.6-1
		c0.5-0.4,0.9-0.9,1.3-1.4c0.4-0.5,0.7-1.1,0.9-1.7c0.2-0.5,0.3-1,0.4-1.6c0-0.1,0-0.3,0.1-0.4c0-0.1,0-0.3,0-0.4c0-0.1,0-0.3,0-0.4
		l0-0.4c0-1.2,0.1-2.4,0-3.5c-0.1-3.8,0.1-7.5,0.1-11.1c0-0.5-0.1-1.6-0.1-2c0-0.2,0-0.3,0-0.5c0-0.1,0-0.3,0-0.4c0-0.1,0-0.3,0-0.4
		c0-0.1,0-0.3-0.1-0.4c-0.1-0.6-0.3-1.1-0.5-1.7c-0.5-1.1-1.2-2-2.1-2.7c-0.9-0.7-1.9-1.2-3-1.4C27.1,1,26.6,0.9,26,0.9
		c-0.3,0-0.6,0-0.9,0c-0.3,0-0.6,0-0.9,0C22.4,1,21,1,19.2,1c-0.2,0.1-0.6,0.1-1.1,0.1c-1.4,0-8.9-0.2-9.6-0.3c-0.2,0,3.5,0,7.3-0.1
		c1.9,0,3.7,0,5.1,0c1.4,0,2.3,0,2.2-0.1c-0.3,0-9.9,0-10.7,0c4.5-0.1,8.1-0.2,11-0.3c0.7,0,1.4,0,2.1,0c0.3,0,0.6,0,0.9,0
		c0.1,0,0.3,0,0.4,0c0.1,0,0.1,0,0.2,0c0.1,0,0.1,0,0.2,0c1.1,0.2,2,0.5,2.7,0.9c0.7,0.4,1.2,0.8,1.6,1.2c0.4,0.4,0.6,0.7,0.8,0.9
		c0.2,0.2,0.3,0.3,0.3,0.4c0,0,0,0-0.1-0.1c-0.2-0.2-0.6-0.8-1.2-1.4c-0.7-0.6-1.7-1.3-2.9-1.7c-0.6-0.2-1.3-0.3-2-0.4
		c-0.1,0-0.2,0-0.3,0c-0.1,0-0.2,0-0.3,0c-0.2,0-0.4,0-0.5,0c-0.4,0-0.7,0-1.1,0c-1.4,0-2.9,0.1-4.2,0.1c-1.7,0-4.1,0.1-7.4,0.1
		c1.9-0.1,5.9-0.3,6.8-0.3c2.2-0.1,3.1-0.1,4.1-0.1c0.5,0,1,0,1.7,0c0.2,0,0.4,0,0.6,0c0.1,0,0.2,0,0.3,0c0.1,0,0.2,0,0.3,0
		c0.5,0,1,0.1,1.6,0.3c0.5,0.2,1,0.4,1.6,0.6c0.5,0.3,1.1,0.6,1.6,1.1c1,0.9,1.9,2,2.4,3.3c0.3,0.7,0.4,1.3,0.5,2
		c0.1,0.3,0.1,0.7,0.1,1c0,0.3,0,0.6,0,0.9c0,1.2,0,2.3,0.1,3.2c-0.1-0.9-0.2-2.4-0.2-4c0-0.4-0.1-0.8-0.1-1.3
		C34,6.8,33.9,6.4,33.7,6c-0.3-0.8-0.6-1.5-1-2.1c0.4,0.6,0.6,1.2,0.8,1.8c0.2,0.6,0.3,1.1,0.4,1.6c0,0.2,0.1,0.5,0.1,0.7
		c0,0.1,0,0.2,0,0.3c0,0.1,0,0.2,0,0.3c0,0.4,0,0.9,0.1,1.3c0.1,1.7,0.2,3.4,0.2,6.4c0,0.6,0,1.2,0,1.9c0,0.7,0,1.3-0.1,2.1
		c0,1.2,0,2.4,0,3.6c0,0.6,0,1.2,0,1.8c0,0.6-0.1,1.2-0.2,1.8c-0.2,1.2-0.7,2.4-1.5,3.4c-0.7,1-1.7,1.9-2.8,2.5
		c0.2-0.1,0.4-0.2,0.5-0.3c0.1,0,0.2-0.1,0.3-0.1c0.1,0,0.2-0.1,0.3-0.2c0.9-0.6,1.7-1.5,2.3-2.4c0.6-0.9,1-1.9,1.2-3
		c0.1-0.5,0.2-1.1,0.2-1.6c0-0.1,0-0.3,0-0.4c0-0.1,0-0.3,0-0.4c0-0.3,0-0.5,0-0.8c0-1,0-2.1,0-3.2c0-0.9-0.1-2-0.1-3
		c0-1.8,0.1-3.5,0.1-5.2c0.1,3.4,0.1,7.4,0.1,11.1c0,0.4,0,0.8,0.1,1.2c0,0.2,0,0.4,0,0.6c0,0.2,0,0.4,0,0.6c0-0.1,0-0.2,0-0.4
		l0-0.4c0-0.2,0-0.4,0-0.6c0-0.4,0-0.9,0-1.3c0-0.9,0-1.7,0-2.6c0-3-0.1-6.5-0.2-9.7c0-0.8,0-1.6,0-2.4c0-0.2,0-0.4,0-0.6
		c0-0.1,0-0.2,0-0.3c0-0.1,0-0.2,0-0.3c0-0.4-0.1-0.8-0.1-1.2c-0.1-0.8-0.3-1.5-0.6-2.1c-0.3-0.6-0.6-1.2-0.9-1.7
		c-0.1-0.1-0.2-0.2-0.4-0.4c0-0.1-0.1-0.1-0.2-0.2c-0.3-0.3-0.7-0.7-1-1c-0.4-0.3-0.8-0.6-1.2-0.9c0.7,0.4,1.4,0.9,2,1.5
		c1.2,1.1,2.1,2.7,2.5,4.4c0.1,0.4,0.2,0.9,0.2,1.3c0,0.1,0,0.2,0,0.3l0,0.2v0.2c0,0.2,0,0.4,0,0.6c0,0.8,0,1.6,0,2.5
		c0,3.3,0,6.7,0,10c0,0.7,0,1.7,0,2.7c0,0.5,0,1,0,1.4c0,0.1,0,0.1,0,0.2c0,0.1,0,0.1,0,0.2c0,0.1,0,0.2,0,0.4c0,0.2,0,0.4-0.1,0.6
		c-0.1,1.2-0.5,2.3-1.1,3.4c-0.6,1-1.4,2-2.4,2.7c-1,0.7-2.1,1.2-3.2,1.5c-0.6,0.1-1.2,0.2-1.8,0.2l-0.4,0l-0.4,0
		c-0.3,0-0.5,0-0.8,0c-3.8-0.1-7.7-0.2-11.5-0.2c-1,0-1.9,0-2.9-0.1l-1.4,0c-0.2,0-0.5,0-0.7,0c-0.1,0-0.3,0-0.4,0l-0.4-0.1
		c-1-0.2-1.9-0.5-2.8-1c-0.9-0.5-1.6-1.2-2.3-1.9c-0.6-0.8-1.1-1.6-1.5-2.6C0.4,27.9,0.2,27,0.3,26c0-1.9,0.1-3.8,0.1-5.7
		c0.1-3.8,0.2-7.6,0.3-11.4c0-0.2,0-0.4,0-0.5l0-0.3c0-0.1,0-0.2,0-0.3c0,0.1,0,0.1,0,0.2c0,0.1,0,0.1,0,0.2c0-0.3,0.1-0.6,0.1-0.9
		c0.1-0.9,0.4-1.8,0.9-2.6c0.5-0.8,1.1-1.5,1.8-2.1c0.1-0.1,0.2-0.1,0.1,0c0,0-0.1,0.1-0.2,0.1C3.3,2.8,3.2,2.9,3.1,2.9
		C3.1,3,3,3.1,2.9,3.2C2.8,3.3,2.7,3.4,2.6,3.5C2.5,3.6,2.5,3.7,2.4,3.8C2.3,3.9,2.3,4,2.3,4c0.2-0.3,0.5-0.6,0.5-0.6s0,0.1,0,0.2
		c0.2-0.2,0.3-0.3,0.5-0.5C2.5,3.8,2,4.6,1.6,5.5C1.2,6.4,1,7.4,1,8.4c0,2.1,0,4.2,0,6.4c0.1-0.5,0.1-1.8,0.1-2.4c0-0.7,0-1.4,0-2.1
		c0-0.3,0-0.7,0-1c0-0.2,0-0.3,0-0.5c0-0.2,0-0.3,0-0.5c0-0.8,0.2-1.6,0.5-2.4c0.3-0.8,0.7-1.5,1.3-2.1C3.4,3.1,4,2.6,4.7,2.2
		c0.7-0.4,1.4-0.7,2.2-0.8C7.4,1.3,8,1.2,8.5,1.3c0.2,0,0.2,0,0.2,0c0,0-0.1,0-0.2,0c-0.1,0-0.2,0-0.3,0C7.9,1.4,7.2,1.5,6.7,1.6
		L6.7,1.6z M20.4,34.4c-1.2,0-2.3-0.1-3.5-0.2c-0.4,0-0.8,0-1.2,0c-0.5,0-1.1,0-1.6,0c-1.1,0-2.2-0.1-3.3-0.1l-1.7,0
		c-0.3,0-0.6,0-0.8,0C7.9,34,7.7,34,7.4,34c0.3,0.1,0.5,0.1,0.8,0.1c0.3,0,0.6,0,0.9,0.1c0.6,0,1.2,0.1,1.8,0.1
		c1.2,0.1,2.5,0.1,3.9,0.1c-1.8,0-3.6,0-5.3-0.1c-0.2,0-0.4,0-0.6,0l-0.3,0l-0.3,0c-0.4,0-0.9-0.1-1.3-0.2c-0.4-0.1-0.8-0.2-1.2-0.4
		c-0.4-0.2-0.8-0.3-1.1-0.6C3.2,32.2,2,31,1.4,29.5c-0.3-0.7-0.5-1.5-0.6-2.3c0-0.4-0.1-0.8-0.1-1.2c0-0.4,0-0.8,0-1.3
		c0-2,0.1-4.1,0.1-6.2c0-1.5,0-2.9,0-4.4c-0.1,2.3-0.1,4.5-0.2,6.8c0,1.1-0.1,2.3-0.1,3.4l0,1.7c0,0.6,0,1.1,0.1,1.7
		c0.2,1.1,0.6,2.2,1.3,3.1c0.6,0.9,1.5,1.7,2.4,2.4c1,0.6,2.1,1,3.2,1.2c0.3,0,0.6,0.1,0.9,0.1c0.3,0,0.6,0,0.8,0l1.7,0
		c4.5,0.1,9,0.2,13.5,0.3l0.8,0c0.3,0,0.6,0,0.9,0c0.6,0,1.2-0.1,1.8-0.2c1.2-0.3,2.3-0.8,3.3-1.6c1-0.8,1.8-1.7,2.4-2.8
		c0.6-1.1,1-2.4,1-3.6c-0.1,1.6-0.7,3.2-1.7,4.5c-0.9,1.3-2.2,2.3-3.6,2.9c-0.7,0.3-1.5,0.5-2.2,0.6c-0.4,0-0.8,0.1-1.2,0.1
		c-0.2,0-0.4,0-0.6,0l-0.5,0C23.4,34.5,21.9,34.5,20.4,34.4L20.4,34.4z M22.6,34.3c0.6,0,1.2,0,1.8,0c0.3,0,0.6,0,0.9,0
		c0.3,0,0.6,0,0.9,0c1.2,0,2.4-0.4,3.5-0.9c1.5-0.7,2.7-1.9,3.5-3.4c0.4-0.7,0.7-1.5,0.9-2.3c0.1-0.4,0.1-0.8,0.2-1.2
		c0-0.2,0-0.4,0-0.6c0-0.2,0-0.4,0-0.6c0-3-0.1-5.8-0.2-7.9c0,2.8,0.1,5.7,0.1,8.6c0,1.5-0.4,3-1.2,4.3c-0.8,1.3-1.9,2.4-3.3,3.1
		c0.7-0.3,1.1-0.7,1.5-0.9c0.2-0.1,0.3-0.3,0.4-0.4c0.1-0.1,0.2-0.2,0.2-0.2c0.2-0.2,0.1,0-0.4,0.4c-0.2,0.2-0.6,0.5-1,0.8
		c-0.4,0.3-1,0.6-1.7,0.8c-0.3,0.1-0.7,0.2-1.1,0.3c-0.4,0.1-0.8,0.1-1.2,0.2c-0.4,0-0.9,0-1.3,0c-0.4,0-0.9,0-1.4,0
		C23.4,34.3,23,34.3,22.6,34.3L22.6,34.3z"/>
	<path class="st0" d="M0.4,17.8c0.1-2.6,0.2-5.3,0.3-8c-0.1,1-0.2,1.9-0.3,3.1c-0.2,3.2-0.2,6.8-0.3,10.1c0,0.6,0,1.2-0.1,1.8
		c0,0.3,0,0.6,0,0.9c0,0.1,0,0.3,0,0.5c0,0.2,0,0.3,0,0.5c0.1,1.3,0.5,2.6,1.1,3.7c0.7,1.1,1.6,2.1,2.7,2.9c0.5,0.4,1.1,0.7,1.8,0.9
		c0.6,0.2,1.3,0.4,1.9,0.5c0.2,0,0.3,0,0.5,0.1c0.2,0,0.3,0,0.5,0c0.3,0,0.6,0,0.9,0c0.6,0,1.2,0,1.9,0c1.2,0,2.5,0,3.8,0.1
		c2.5,0,5,0.1,7.6,0.1c0.5,0,1.6,0,2.4,0c-3.2-0.1-6.4-0.1-9.5-0.2c-1.6,0-3.1-0.1-4.7-0.1c-0.8,0-1.6,0-2.3,0
		c-0.8,0-1.7-0.1-2.4-0.4c-1.6-0.5-3-1.4-4-2.7c-1-1.3-1.7-2.8-1.9-4.4c0-0.4-0.1-0.8-0.1-1.2c0-0.4,0-0.8,0-1.2
		c0-0.8,0-1.6,0.1-2.3C0.3,20.9,0.3,19.4,0.4,17.8L0.4,17.8z"/>
	<path class="st0" d="M35,22.8c0-1.9-0.1-3.8,0-5.6c-0.1,1.6-0.1,3.9-0.1,5.7c0,0.6,0,1.3,0,1.9l0,0.9v0.1l0,0.1l0,0.3
		c0,0.2,0,0.4,0,0.5c-0.1,1.4-0.6,2.8-1.3,4c0.8-1.2,1.3-2.5,1.4-4c0-0.2,0-0.4,0-0.5l0-0.3l0-0.1l0-0.1c0-0.3,0-0.6,0-1
		C35,24.1,35,23.5,35,22.8L35,22.8z"/>
	<path class="st0" d="M25.1,35l0.4,0l0.2,0h0.1h0.1c0.3,0,0.6,0,0.9,0c1.3-0.1,2.6-0.6,3.8-1.3c0.6-0.4,1.1-0.8,1.6-1.3
		c0.5-0.5,0.9-1,1.3-1.6c-0.4,0.6-0.9,1.2-1.4,1.7c-0.5,0.5-1.1,0.9-1.8,1.3c-1.3,0.7-2.7,1.1-4.1,1.1c0,0-0.1,0.1-0.3,0.1
		c-0.1,0-0.1,0-0.2,0c-0.1,0-0.1,0-0.2,0C25.4,35,25.3,35,25.1,35L25.1,35z"/>
	<path class="st1" d="M10.8,14.6c1.1-5.1,8.4-3.6,11.9-1.3c3.5,2.3,5.3,6.7,2.4,9.6c-2.9,2.9-5.8,3.2-10.4,1.1
		C10,21.9,9.4,20.9,10.8,14.6L10.8,14.6z"/>
	<path class="st0" d="M23.6,23.6c0,0,0.1-0.1,0.4-0.2c0.3-0.2,0.7-0.4,1.1-0.8c0,0,0,0,0,0c0,0,0,0,0-0.1c0,0,0.1-0.1,0.2-0.2
		c0.1-0.1,0.2-0.2,0.3-0.4c0-0.1,0.1-0.2,0.1-0.2c0,0,0,0,0-0.1c0,0,0,0,0-0.1c0,0,0-0.1,0.1-0.1c0.2-0.4,0.3-0.9,0.2-1.6
		c0-0.1,0-0.2,0-0.2c0-0.1,0-0.2,0-0.2c0,0,0-0.1,0-0.1c0,0,0-0.1,0-0.1c0-0.1,0-0.2-0.1-0.3c-0.1-0.4-0.2-0.7-0.4-1.1
		c-0.3-0.8-0.8-1.6-1.4-2.4c-0.6-0.8-1.4-1.7-2.4-2.4c-1-0.7-2.3-1.3-3.7-1.5c-0.3-0.1-0.7-0.1-1.1-0.1c-0.4,0-0.7,0-1.1,0
		c-0.7,0.1-1.5,0.3-2.1,0.6l-0.2,0.1c0,0,0,0-0.1,0c0,0-0.1,0.1-0.2,0.1c-0.1,0.1-0.3,0.2-0.6,0.4c-0.1,0.1-0.2,0.2-0.4,0.4
		c0,0-0.1,0.1-0.1,0.1c0,0-0.1,0.1-0.1,0.1c-0.1,0.1-0.2,0.2-0.2,0.3c-0.3,0.4-0.6,0.9-0.9,1.4c0,0,0,0,0,0c0,0,0,0.1-0.1,0.1
		c-0.1,0.1-0.1,0.3-0.2,0.4c-0.1,0.2-0.1,0.4-0.2,0.7c-0.1,0.2-0.1,0.5-0.1,0.8c0,0.6,0.1,1.1,0.2,1.6c0.2,0.5,0.3,0.9,0.4,1.1
		c0,0,0,0,0,0.1c0,0,0,0.1,0.1,0.2c0,0.1,0.1,0.2,0.1,0.3c0.1,0.1,0.1,0.2,0.2,0.4c0.3,0.6,0.8,1.4,1.6,2.3c0.4,0.5,0.9,1,1.5,1.5
		c0.3,0.2,0.7,0.5,1.1,0.7c0.2,0.1,0.4,0.2,0.7,0.2c0.2,0,0.5,0.1,0.7,0.1c0.5,0,1,0,1.5-0.1c0.5-0.1,1-0.2,1.5-0.4
		c1-0.3,2.1-0.7,3.2-1.2c0,0-0.3,0.1-0.9,0.4c-0.6,0.2-1.4,0.6-2.5,0.9c-0.5,0.2-1.2,0.3-1.8,0.4c-0.3,0-0.7,0.1-1.1,0
		c-0.4,0-0.8-0.1-1.1-0.2c-0.4-0.1-0.7-0.3-1.1-0.6c-0.3-0.2-0.6-0.5-0.9-0.8c-0.6-0.6-1.1-1.2-1.6-1.9c0,0-0.1-0.1-0.3-0.2
		c-0.2-0.2-0.5-0.4-0.8-0.9c-0.3-0.4-0.7-1-1-1.7c-0.1-0.4-0.3-0.8-0.3-1.3c0-0.5,0-1,0.1-1.5c0,0,0,0,0,0.1c0,0.1-0.1,0.2-0.1,0.3
		c-0.1,0.3-0.2,0.8-0.1,1.6c0.1,0.8,0.5,1.9,1.4,3.1c0.2,0.3,0.5,0.6,0.7,1c0.3,0.3,0.6,0.7,0.9,1c0.3,0.4,0.7,0.7,1.1,1.1
		c0.4,0.4,1,0.7,1.6,1c0,0,0,0-0.1,0c0,0-0.1,0-0.1-0.1c-0.1,0-0.1-0.1-0.2-0.1c-0.3-0.1-0.7-0.4-1.3-0.9c-0.5-0.5-1.2-1.2-1.9-2.1
		c-0.4-0.5-0.8-1-1.2-1.7c-0.2-0.3-0.4-0.7-0.6-1.1c-0.2-0.4-0.3-0.8-0.4-1.3c0,0,0,0.1,0,0.3c0,0.1,0,0.2,0,0.3
		c0,0.1,0.1,0.2,0.1,0.4c0.2,0.6,0.5,1.4,1.1,2.2c0,0,0-0.1-0.1-0.2c-0.1-0.1-0.2-0.3-0.3-0.5c-0.3-0.5-0.6-1.1-0.9-2.1
		c-0.1-0.2-0.1-0.5-0.1-0.8c0-0.1,0-0.3,0-0.4c0-0.1,0-0.3,0-0.5c0-0.6,0.2-1.3,0.5-2c0.3-0.7,0.8-1.3,1.3-2
		c0.5-0.7,1.2-1.3,2.2-1.7c-0.7,0.3-1,0.6-1.1,0.7c0,0,0,0,0.1-0.1s0.2-0.2,0.4-0.3c0.2-0.1,0.4-0.3,0.8-0.4
		c0.3-0.1,0.7-0.3,1.1-0.4c0.8-0.2,1.9-0.3,3-0.1c1.1,0.2,2.2,0.5,3.2,1c0.5,0.3,1,0.6,1.4,0.9c0.4,0.3,0.8,0.7,1.2,1.1
		c0.7,0.7,1.3,1.5,1.7,2.1c0.4,0.6,0.7,1.2,0.9,1.5c0,0,0,0.1,0.1,0.3c0.1,0.2,0.2,0.5,0.2,0.8c0.1,0.4,0.2,0.8,0.2,1.2
		c0,0.5,0,1-0.2,1.4c-0.2,0.5-0.4,0.9-0.7,1.3c-0.1,0.1-0.2,0.2-0.3,0.3c-0.1,0.1-0.2,0.2-0.3,0.2c-0.1,0.1-0.2,0.1-0.3,0.2
		c0,0-0.1,0.1-0.1,0.1c0,0-0.1,0.1-0.1,0.1C24.1,23.5,23.6,23.7,23.6,23.6"/>
</g>
</svg>
